<svg width="68" height="48" viewBox="0 0 68 48" fill="none" xmlns="http://www.w3.org/2000/svg">
<mask id="path-1-outside-1_446_4262" maskUnits="userSpaceOnUse" x="0" y="0" width="68" height="48" fill="black">
<rect fill="white" width="68" height="48"/>
<path d="M16.368 46.768C13.9787 46.768 11.8453 46.4267 9.968 45.744C8.09067 45.0187 6.49067 43.8027 5.168 42.096C3.84533 40.3467 2.84267 38.0213 2.16 35.12C1.47733 32.176 1.136 28.4853 1.136 24.048C1.136 19.6107 1.47733 15.9413 2.16 13.04C2.84267 10.096 3.84533 7.77066 5.168 6.064C6.49067 4.31467 8.09067 3.09866 9.968 2.416C11.8453 1.69066 13.9787 1.328 16.368 1.328C18.7573 1.328 20.8693 1.69066 22.704 2.416C24.5813 3.09866 26.1813 4.31467 27.504 6.064C28.8267 7.77066 29.8293 10.096 30.512 13.04C31.1947 15.9413 31.536 19.6107 31.536 24.048C31.536 28.4853 31.1947 32.176 30.512 35.12C29.8293 38.0213 28.8267 40.3467 27.504 42.096C26.1813 43.8027 24.5813 45.0187 22.704 45.744C20.8693 46.4267 18.7573 46.768 16.368 46.768ZM16.368 42.032C18.8 42.032 20.6773 41.4133 22 40.176C23.3653 38.9387 24.304 37.104 24.816 34.672C25.3707 32.24 25.648 29.2107 25.648 25.584V22.64C25.648 18.9707 25.3707 15.92 24.816 13.488C24.304 11.0133 23.3653 9.15733 22 7.92C20.6773 6.68267 18.8 6.064 16.368 6.064C13.936 6.064 12.0373 6.68267 10.672 7.92C9.30667 9.15733 8.34667 10.992 7.792 13.424C7.28 15.856 7.024 18.9067 7.024 22.576V25.456C7.024 29.0827 7.28 32.1333 7.792 34.608C8.34667 37.0827 9.30667 38.9387 10.672 40.176C12.0373 41.4133 13.936 42.032 16.368 42.032ZM38.9755 46V41.2H50.0475V10.8H38.9115V7.216C40.4902 7.088 42.1115 6.85333 43.7755 6.512C45.4822 6.17067 47.1462 5.63733 48.7675 4.912C50.3888 4.144 51.8608 3.16267 53.1835 1.968H55.7435V41.2H66.1755V46H38.9755Z"/>
</mask>
<path d="M9.968 45.744L9.6076 46.6768L9.61689 46.6804L9.62626 46.6838L9.968 45.744ZM5.168 42.096L4.37028 42.6992L4.37759 42.7086L5.168 42.096ZM2.16 35.12L1.18584 35.3459L1.18658 35.349L2.16 35.12ZM2.16 13.04L3.13342 13.269L3.13415 13.2659L2.16 13.04ZM5.168 6.064L5.95847 6.67661L5.96566 6.66711L5.168 6.064ZM9.968 2.416L10.3097 3.35579L10.3191 3.35238L10.3284 3.34879L9.968 2.416ZM22.704 2.416L22.3363 3.34596L22.3492 3.35105L22.3623 3.35579L22.704 2.416ZM27.504 6.064L26.7063 6.66715L26.7136 6.67657L27.504 6.064ZM30.512 13.04L29.5378 13.2659L29.5386 13.269L30.512 13.04ZM30.512 35.12L31.4854 35.349L31.4862 35.3459L30.512 35.12ZM27.504 42.096L28.2945 42.7086L28.3017 42.6991L27.504 42.096ZM22.704 45.744L23.0528 46.6813L23.0644 46.6768L22.704 45.744ZM22 40.176L21.3285 39.435L21.3226 39.4403L21.3168 39.4457L22 40.176ZM24.816 34.672L23.841 34.4496L23.8392 34.4578L23.8375 34.466L24.816 34.672ZM24.816 13.488L23.8367 13.6906L23.8388 13.7005L23.841 13.7104L24.816 13.488ZM22 7.92L21.3168 8.65027L21.3226 8.65567L21.3285 8.66099L22 7.92ZM10.672 7.92L11.3435 8.66099L10.672 7.92ZM7.792 13.424L6.81704 13.2016L6.81518 13.2098L6.81345 13.218L7.792 13.424ZM7.792 34.608L6.81274 34.8106L6.81441 34.8187L6.81621 34.8267L7.792 34.608ZM10.672 40.176L11.3435 39.435L10.672 40.176ZM16.368 46.768V45.768C14.073 45.768 12.0584 45.4401 10.3097 44.8042L9.968 45.744L9.62626 46.6838C11.6322 47.4132 13.8844 47.768 16.368 47.768V46.768ZM9.968 45.744L10.3284 44.8112C8.63328 44.1563 7.178 43.0571 5.95842 41.4834L5.168 42.096L4.37759 42.7086C5.80333 44.5482 7.54805 45.8811 9.6076 46.6768L9.968 45.744ZM5.168 42.096L5.96566 41.4929C4.75139 39.8869 3.79498 37.7026 3.13342 34.891L2.16 35.12L1.18658 35.349C1.89036 38.3401 2.93928 40.8064 4.37034 42.6991L5.168 42.096ZM2.16 35.12L3.13415 34.8941C2.47462 32.0499 2.136 28.4412 2.136 24.048H1.136H0.136C0.136 28.5295 0.48005 32.3021 1.18585 35.3459L2.16 35.12ZM1.136 24.048H2.136C2.136 19.6542 2.47473 16.0685 3.13342 13.269L2.16 13.04L1.18658 12.811C0.479936 15.8142 0.136 19.5671 0.136 24.048H1.136ZM2.16 13.04L3.13415 13.2659C3.79639 10.41 4.75215 8.23304 5.95842 6.67657L5.168 6.064L4.37759 5.45143C2.93852 7.30828 1.88895 9.78199 1.18585 12.8141L2.16 13.04ZM5.168 6.064L5.96566 6.66711C7.18383 5.05598 8.63126 3.96615 10.3097 3.35579L9.968 2.416L9.62626 1.4762C7.55007 2.23118 5.7975 3.57335 4.37034 5.46089L5.168 6.064ZM9.968 2.416L10.3284 3.34879C12.0714 2.67535 14.0793 2.328 16.368 2.328V1.328V0.327999C13.878 0.327999 11.6192 0.705982 9.6076 1.4832L9.968 2.416ZM16.368 1.328V2.328C18.6573 2.328 20.6406 2.67554 22.3363 3.34596L22.704 2.416L23.0717 1.48604C21.0981 0.705786 18.8573 0.327999 16.368 0.327999V1.328ZM22.704 2.416L22.3623 3.35579C24.0407 3.96615 25.4882 5.05598 26.7063 6.66711L27.504 6.064L28.3017 5.46089C26.8745 3.57335 25.1219 2.23118 23.0457 1.4762L22.704 2.416ZM27.504 6.064L26.7136 6.67657C27.9199 8.23304 28.8756 10.41 29.5378 13.2659L30.512 13.04L31.4862 12.8141C30.7831 9.78199 29.7335 7.30828 28.2944 5.45143L27.504 6.064ZM30.512 13.04L29.5386 13.269C30.1973 16.0685 30.536 19.6542 30.536 24.048H31.536H32.536C32.536 19.5671 32.1921 15.8142 31.4854 12.811L30.512 13.04ZM31.536 24.048H30.536C30.536 28.4412 30.1974 32.0499 29.5378 34.8941L30.512 35.12L31.4862 35.3459C32.192 32.3021 32.536 28.5295 32.536 24.048H31.536ZM30.512 35.12L29.5386 34.891C28.877 37.7026 27.9206 39.8869 26.7063 41.4929L27.504 42.096L28.3017 42.6991C29.7327 40.8064 30.7816 38.3401 31.4854 35.349L30.512 35.12ZM27.504 42.096L26.7136 41.4834C25.494 43.0571 24.0387 44.1563 22.3436 44.8112L22.704 45.744L23.0644 46.6768C25.124 45.8811 26.8687 44.5482 28.2944 42.7086L27.504 42.096ZM22.704 45.744L22.3553 44.8068C20.6538 45.4399 18.6637 45.768 16.368 45.768V46.768V47.768C18.851 47.768 21.0849 47.4134 23.0527 46.6812L22.704 45.744ZM16.368 42.032V43.032C18.965 43.032 21.1193 42.3693 22.6832 40.9063L22 40.176L21.3168 39.4457C20.2354 40.4574 18.635 41.032 16.368 41.032V42.032ZM22 40.176L22.6715 40.917C24.2393 39.4962 25.2541 37.4454 25.7946 34.878L24.816 34.672L23.8375 34.466C23.3539 36.7626 22.4914 38.3811 21.3285 39.435L22 40.176ZM24.816 34.672L25.791 34.8944C26.3679 32.3647 26.648 29.255 26.648 25.584H25.648H24.648C24.648 29.1664 24.3734 32.1153 23.841 34.4496L24.816 34.672ZM25.648 25.584H26.648V22.64H25.648H24.648V25.584H25.648ZM25.648 22.64H26.648C26.648 18.9274 26.3681 15.796 25.791 13.2656L24.816 13.488L23.841 13.7104C24.3733 16.044 24.648 19.014 24.648 22.64H25.648ZM24.816 13.488L25.7953 13.2854C25.256 10.6787 24.2428 8.60295 22.6715 7.17901L22 7.92L21.3285 8.66099C22.4879 9.71171 23.352 11.3479 23.8367 13.6906L24.816 13.488ZM22 7.92L22.6832 7.18973C21.1193 5.72674 18.965 5.064 16.368 5.064V6.064V7.064C18.635 7.064 20.2354 7.63859 21.3168 8.65027L22 7.92ZM16.368 6.064V5.064C13.7689 5.064 11.6021 5.72753 10.0005 7.17901L10.672 7.92L11.3435 8.66099C12.4726 7.6378 14.1031 7.064 16.368 7.064V6.064ZM10.672 7.92L10.0005 7.17901C8.43792 8.59508 7.40149 10.639 6.81704 13.2016L7.792 13.424L8.76696 13.6464C9.29185 11.345 10.1754 9.71958 11.3435 8.66099L10.672 7.92ZM7.792 13.424L6.81345 13.218C6.28219 15.7415 6.024 18.8669 6.024 22.576H7.024H8.024C8.024 18.9465 8.27781 15.9705 8.77055 13.63L7.792 13.424ZM7.024 22.576H6.024V25.456H7.024H8.024V22.576H7.024ZM7.024 25.456H6.024C6.024 29.124 6.28243 32.2474 6.81274 34.8106L7.792 34.608L8.77126 34.4054C8.27757 32.0192 8.024 29.0413 8.024 25.456H7.024ZM7.792 34.608L6.81621 34.8267C7.39944 37.4288 8.43441 39.4977 10.0005 40.917L10.672 40.176L11.3435 39.435C10.1789 38.3796 9.29389 36.7365 8.76779 34.3893L7.792 34.608ZM10.672 40.176L10.0005 40.917C11.6021 42.3685 13.7689 43.032 16.368 43.032V42.032V41.032C14.1031 41.032 12.4726 40.4582 11.3435 39.435L10.672 40.176ZM38.9755 46H37.9755V47H38.9755V46ZM38.9755 41.2V40.2H37.9755V41.2H38.9755ZM50.0475 41.2V42.2H51.0475V41.2H50.0475ZM50.0475 10.8H51.0475V9.8H50.0475V10.8ZM38.9115 10.8H37.9115V11.8H38.9115V10.8ZM38.9115 7.216L38.8307 6.21927L37.9115 6.2938V7.216H38.9115ZM43.7755 6.512L43.5794 5.5314L43.5746 5.53239L43.7755 6.512ZM48.7675 4.912L49.1759 5.82482L49.1858 5.82038L49.1956 5.81574L48.7675 4.912ZM53.1835 1.968V0.967999H52.7987L52.5132 1.2259L53.1835 1.968ZM55.7435 1.968H56.7435V0.967999H55.7435V1.968ZM55.7435 41.2H54.7435V42.2H55.7435V41.2ZM66.1755 41.2H67.1755V40.2H66.1755V41.2ZM66.1755 46V47H67.1755V46H66.1755ZM38.9755 46H39.9755V41.2H38.9755H37.9755V46H38.9755ZM38.9755 41.2V42.2H50.0475V41.2V40.2H38.9755V41.2ZM50.0475 41.2H51.0475V10.8H50.0475H49.0475V41.2H50.0475ZM50.0475 10.8V9.8H38.9115V10.8V11.8H50.0475V10.8ZM38.9115 10.8H39.9115V7.216H38.9115H37.9115V10.8H38.9115ZM38.9115 7.216L38.9923 8.21273C40.6141 8.08123 42.2756 7.84049 43.9764 7.4916L43.7755 6.512L43.5746 5.53239C41.9474 5.86617 40.3662 6.09477 38.8307 6.21927L38.9115 7.216ZM43.7755 6.512L43.9716 7.49258C45.7528 7.13634 47.4879 6.57995 49.1759 5.82482L48.7675 4.912L48.3591 3.99918C46.8044 4.69472 45.2115 5.20499 43.5794 5.53142L43.7755 6.512ZM48.7675 4.912L49.1956 5.81574C50.9045 5.00624 52.4582 3.97061 53.8538 2.7101L53.1835 1.968L52.5132 1.2259C51.2634 2.35472 49.8731 3.28176 48.3394 4.00826L48.7675 4.912ZM53.1835 1.968V2.968H55.7435V1.968V0.967999H53.1835V1.968ZM55.7435 1.968H54.7435V41.2H55.7435H56.7435V1.968H55.7435ZM55.7435 41.2V42.2H66.1755V41.2V40.2H55.7435V41.2ZM66.1755 41.2H65.1755V46H66.1755H67.1755V41.2H66.1755ZM66.1755 46V45H38.9755V46V47H66.1755V46Z" fill="#EC1F26" mask="url(#path-1-outside-1_446_4262)"/>
</svg>
