<svg width="71" height="48" viewBox="0 0 71 48" fill="none" xmlns="http://www.w3.org/2000/svg">
<mask id="path-1-outside-1_446_4272" maskUnits="userSpaceOnUse" x="0.666016" y="0" width="70" height="48" fill="black">
<rect fill="white" x="0.666016" width="70" height="48"/>
<path d="M17.034 46.768C14.6447 46.768 12.5113 46.4267 10.634 45.744C8.75668 45.0187 7.15668 43.8027 5.83402 42.096C4.51135 40.3467 3.50868 38.0213 2.82602 35.12C2.14335 32.176 1.80202 28.4853 1.80202 24.048C1.80202 19.6107 2.14335 15.9413 2.82602 13.04C3.50868 10.096 4.51135 7.77066 5.83402 6.064C7.15668 4.31467 8.75668 3.09866 10.634 2.416C12.5113 1.69066 14.6447 1.328 17.034 1.328C19.4234 1.328 21.5354 1.69066 23.37 2.416C25.2473 3.09866 26.8473 4.31467 28.17 6.064C29.4927 7.77066 30.4953 10.096 31.178 13.04C31.8607 15.9413 32.202 19.6107 32.202 24.048C32.202 28.4853 31.8607 32.176 31.178 35.12C30.4953 38.0213 29.4927 40.3467 28.17 42.096C26.8473 43.8027 25.2473 45.0187 23.37 45.744C21.5354 46.4267 19.4234 46.768 17.034 46.768ZM17.034 42.032C19.466 42.032 21.3434 41.4133 22.666 40.176C24.0313 38.9387 24.97 37.104 25.482 34.672C26.0367 32.24 26.314 29.2107 26.314 25.584V22.64C26.314 18.9707 26.0367 15.92 25.482 13.488C24.97 11.0133 24.0313 9.15733 22.666 7.92C21.3434 6.68267 19.466 6.064 17.034 6.064C14.602 6.064 12.7033 6.68267 11.338 7.92C9.97268 9.15733 9.01268 10.992 8.45802 13.424C7.94602 15.856 7.69002 18.9067 7.69002 22.576V25.456C7.69002 29.0827 7.94602 32.1333 8.45802 34.608C9.01268 37.0827 9.97268 38.9387 11.338 40.176C12.7033 41.4133 14.602 42.032 17.034 42.032ZM53.7855 46.768C50.3722 46.768 47.4922 46.256 45.1455 45.232C42.7988 44.1653 41.0282 42.672 39.8335 40.752C38.6388 38.832 38.0415 36.5493 38.0415 33.904V33.072H43.7375V33.904C43.7375 36.5493 44.5695 38.576 46.2335 39.984C47.9402 41.3493 50.2868 42.032 53.2735 42.032C56.2602 42.032 58.6709 41.392 60.5055 40.112C62.3402 38.7893 63.2575 36.6987 63.2575 33.84C63.2575 31.7493 62.7669 30.1493 61.7855 29.04C60.8042 27.9307 59.5242 27.1627 57.9455 26.736C56.4095 26.2667 54.7668 26.032 53.0175 26.032H48.4095V21.296H53.2095C54.8308 21.296 56.3242 21.04 57.6895 20.528C59.0548 20.016 60.1428 19.184 60.9535 18.032C61.8068 16.8373 62.2335 15.3013 62.2335 13.424C62.2335 11.7173 61.8495 10.3307 61.0815 9.264C60.3562 8.19733 59.3535 7.408 58.0735 6.896C56.7935 6.34133 55.3855 6.064 53.8495 6.064C52.1428 6.064 50.6068 6.36267 49.2415 6.96C47.8762 7.51467 46.7882 8.368 45.9775 9.52C45.2095 10.672 44.8255 12.1227 44.8255 13.872V14.704H39.0655V13.552C39.0655 11.12 39.6842 8.98667 40.9215 7.152C42.2015 5.31733 43.9295 3.888 46.1055 2.864C48.3242 1.84 50.8628 1.328 53.7215 1.328C56.5375 1.328 59.0122 1.776 61.1455 2.672C63.3215 3.568 65.0282 4.89067 66.2655 6.64C67.5029 8.38933 68.1215 10.544 68.1215 13.104C68.1215 14.9813 67.7802 16.5813 67.0975 17.904C66.4149 19.184 65.5189 20.2507 64.4095 21.104C63.3002 21.9573 62.1055 22.6613 60.8255 23.216V23.472C63.1722 24.1547 65.1348 25.392 66.7135 27.184C68.2922 28.976 69.0815 31.3227 69.0815 34.224C69.0815 36.8267 68.4202 39.0667 67.0975 40.944C65.8175 42.8213 64.0042 44.272 61.6575 45.296C59.3535 46.2773 56.7295 46.768 53.7855 46.768Z"/>
</mask>
<path d="M10.634 45.744L10.2736 46.6768L10.2829 46.6804L10.2923 46.6838L10.634 45.744ZM5.83402 42.096L5.0363 42.6992L5.0436 42.7086L5.83402 42.096ZM2.82602 35.12L1.85186 35.3459L1.8526 35.349L2.82602 35.12ZM2.82602 13.04L3.79944 13.269L3.80017 13.2659L2.82602 13.04ZM5.83402 6.064L6.62449 6.67661L6.63168 6.66711L5.83402 6.064ZM10.634 2.416L10.9758 3.35579L10.9851 3.35238L10.9944 3.34879L10.634 2.416ZM23.37 2.416L23.0024 3.34596L23.0152 3.35105L23.0283 3.35579L23.37 2.416ZM28.17 6.064L27.3723 6.66715L27.3796 6.67657L28.17 6.064ZM31.178 13.04L30.2039 13.2659L30.2046 13.269L31.178 13.04ZM31.178 35.12L32.1514 35.349L32.1522 35.3459L31.178 35.12ZM28.17 42.096L28.9605 42.7086L28.9677 42.6991L28.17 42.096ZM23.37 45.744L23.7188 46.6813L23.7304 46.6768L23.37 45.744ZM22.666 40.176L21.9945 39.435L21.9886 39.4403L21.9829 39.4457L22.666 40.176ZM25.482 34.672L24.5071 34.4496L24.5052 34.4578L24.5035 34.466L25.482 34.672ZM25.482 13.488L24.5028 13.6906L24.5048 13.7005L24.5071 13.7104L25.482 13.488ZM22.666 7.92L21.9829 8.65027L21.9886 8.65567L21.9945 8.66099L22.666 7.92ZM11.338 7.92L12.0095 8.66099L11.338 7.92ZM8.45802 13.424L7.48305 13.2016L7.48119 13.2098L7.47947 13.218L8.45802 13.424ZM8.45802 34.608L7.47876 34.8106L7.48042 34.8187L7.48223 34.8267L8.45802 34.608ZM11.338 40.176L12.0095 39.435L11.338 40.176ZM17.034 46.768V45.768C14.739 45.768 12.7244 45.4401 10.9758 44.8042L10.634 45.744L10.2923 46.6838C12.2983 47.4132 14.5504 47.768 17.034 47.768V46.768ZM10.634 45.744L10.9944 44.8112C9.2993 44.1563 7.84402 43.0571 6.62443 41.4834L5.83402 42.096L5.0436 42.7086C6.46935 44.5482 8.21407 45.8811 10.2736 46.6768L10.634 45.744ZM5.83402 42.096L6.63168 41.4929C5.4174 39.8869 4.46099 37.7026 3.79943 34.891L2.82602 35.12L1.8526 35.349C2.55637 38.3401 3.6053 40.8064 5.03636 42.6991L5.83402 42.096ZM2.82602 35.12L3.80017 34.8941C3.14063 32.0499 2.80202 28.4412 2.80202 24.048H1.80202H0.802016C0.802016 28.5295 1.14607 32.3021 1.85186 35.3459L2.82602 35.12ZM1.80202 24.048H2.80202C2.80202 19.6542 3.14075 16.0685 3.79943 13.269L2.82602 13.04L1.8526 12.811C1.14595 15.8142 0.802016 19.5671 0.802016 24.048H1.80202ZM2.82602 13.04L3.80017 13.2659C4.4624 10.41 5.41816 8.23304 6.62443 6.67657L5.83402 6.064L5.0436 5.45143C3.60454 7.30828 2.55496 9.78199 1.85186 12.8141L2.82602 13.04ZM5.83402 6.064L6.63168 6.66711C7.84984 5.05598 9.29728 3.96615 10.9758 3.35579L10.634 2.416L10.2923 1.4762C8.21609 2.23118 6.46352 3.57335 5.03636 5.46089L5.83402 6.064ZM10.634 2.416L10.9944 3.34879C12.7375 2.67535 14.7454 2.328 17.034 2.328V1.328V0.327999C14.544 0.327999 12.2852 0.705982 10.2736 1.4832L10.634 2.416ZM17.034 1.328V2.328C19.3233 2.328 21.3066 2.67554 23.0024 3.34596L23.37 2.416L23.7377 1.48604C21.7641 0.705786 19.5234 0.327999 17.034 0.327999V1.328ZM23.37 2.416L23.0283 3.35579C24.7068 3.96615 26.1542 5.05598 27.3724 6.66711L28.17 6.064L28.9677 5.46089C27.5405 3.57335 25.7879 2.23118 23.7118 1.4762L23.37 2.416ZM28.17 6.064L27.3796 6.67657C28.5859 8.23304 29.5416 10.41 30.2039 13.2659L31.178 13.04L32.1522 12.8141C31.4491 9.78199 30.3995 7.30828 28.9604 5.45143L28.17 6.064ZM31.178 13.04L30.2046 13.269C30.8633 16.0685 31.202 19.6542 31.202 24.048H32.202H33.202C33.202 19.5671 32.8581 15.8142 32.1514 12.811L31.178 13.04ZM32.202 24.048H31.202C31.202 28.4412 30.8634 32.0499 30.2039 34.8941L31.178 35.12L32.1522 35.3459C32.858 32.3021 33.202 28.5295 33.202 24.048H32.202ZM31.178 35.12L30.2046 34.891C29.543 37.7026 28.5866 39.8869 27.3724 41.4929L28.17 42.096L28.9677 42.6991C30.3987 40.8064 31.4477 38.3401 32.1514 35.349L31.178 35.12ZM28.17 42.096L27.3796 41.4834C26.16 43.0571 24.7047 44.1563 23.0096 44.8112L23.37 45.744L23.7304 46.6768C25.79 45.8811 27.5347 44.5482 28.9604 42.7086L28.17 42.096ZM23.37 45.744L23.0213 44.8068C21.3198 45.4399 19.3297 45.768 17.034 45.768V46.768V47.768C19.517 47.768 21.7509 47.4134 23.7188 46.6812L23.37 45.744ZM17.034 42.032V43.032C19.631 43.032 21.7853 42.3693 23.3492 40.9063L22.666 40.176L21.9829 39.4457C20.9014 40.4574 19.301 41.032 17.034 41.032V42.032ZM22.666 40.176L23.3375 40.917C24.9053 39.4962 25.9201 37.4454 26.4606 34.878L25.482 34.672L24.5035 34.466C24.02 36.7626 23.1574 38.3811 21.9945 39.435L22.666 40.176ZM25.482 34.672L26.457 34.8944C27.0339 32.3647 27.314 29.255 27.314 25.584H26.314H25.314C25.314 29.1664 25.0394 32.1153 24.5071 34.4496L25.482 34.672ZM26.314 25.584H27.314V22.64H26.314H25.314V25.584H26.314ZM26.314 22.64H27.314C27.314 18.9274 27.0341 15.796 26.457 13.2656L25.482 13.488L24.5071 13.7104C25.0393 16.044 25.314 19.014 25.314 22.64H26.314ZM25.482 13.488L26.4613 13.2854C25.922 10.6787 24.9088 8.60295 23.3375 7.17901L22.666 7.92L21.9945 8.66099C23.1539 9.71171 24.0181 11.3479 24.5028 13.6906L25.482 13.488ZM22.666 7.92L23.3492 7.18973C21.7853 5.72674 19.631 5.064 17.034 5.064V6.064V7.064C19.301 7.064 20.9014 7.63859 21.9829 8.65027L22.666 7.92ZM17.034 6.064V5.064C14.4349 5.064 12.2681 5.72753 10.6665 7.17901L11.338 7.92L12.0095 8.66099C13.1386 7.6378 14.7691 7.064 17.034 7.064V6.064ZM11.338 7.92L10.6665 7.17901C9.10393 8.59508 8.0675 10.639 7.48305 13.2016L8.45802 13.424L9.43298 13.6464C9.95786 11.345 10.8414 9.71958 12.0095 8.66099L11.338 7.92ZM8.45802 13.424L7.47947 13.218C6.94821 15.7415 6.69002 18.8669 6.69002 22.576H7.69002H8.69002C8.69002 18.9465 8.94383 15.9705 9.43657 13.63L8.45802 13.424ZM7.69002 22.576H6.69002V25.456H7.69002H8.69002V22.576H7.69002ZM7.69002 25.456H6.69002C6.69002 29.124 6.94844 32.2474 7.47876 34.8106L8.45802 34.608L9.43728 34.4054C8.94359 32.0192 8.69002 29.0413 8.69002 25.456H7.69002ZM8.45802 34.608L7.48223 34.8267C8.06546 37.4288 9.10043 39.4977 10.6665 40.917L11.338 40.176L12.0095 39.435C10.8449 38.3796 9.95991 36.7365 9.43381 34.3893L8.45802 34.608ZM11.338 40.176L10.6665 40.917C12.2681 42.3685 14.4349 43.032 17.034 43.032V42.032V41.032C14.7691 41.032 13.1386 40.4582 12.0095 39.435L11.338 40.176ZM45.1455 45.232L44.7317 46.1424L44.7386 46.1455L44.7456 46.1485L45.1455 45.232ZM39.8335 40.752L38.9845 41.2803L39.8335 40.752ZM38.0415 33.072V32.072H37.0415V33.072H38.0415ZM43.7375 33.072H44.7375V32.072H43.7375V33.072ZM46.2335 39.984L45.5876 40.7474L45.5981 40.7563L45.6088 40.7649L46.2335 39.984ZM60.5055 40.112L61.0777 40.9321L61.084 40.9277L61.0903 40.9232L60.5055 40.112ZM61.7855 29.04L62.5345 28.3774L61.7855 29.04ZM57.9455 26.736L57.6533 27.6923L57.6689 27.6971L57.6846 27.7014L57.9455 26.736ZM48.4095 26.032H47.4095V27.032H48.4095V26.032ZM48.4095 21.296V20.296H47.4095V21.296H48.4095ZM57.6895 20.528L57.3384 19.5917H57.3384L57.6895 20.528ZM60.9535 18.032L60.1398 17.4507L60.1357 17.4565L60.9535 18.032ZM61.0815 9.264L60.2546 9.82631L60.2621 9.83741L60.27 9.8483L61.0815 9.264ZM58.0735 6.896L57.6759 7.81355L57.6889 7.8192L57.7021 7.82448L58.0735 6.896ZM49.2415 6.96L49.6179 7.88647L49.6302 7.88147L49.6423 7.87616L49.2415 6.96ZM45.9775 9.52L45.1597 8.9445L45.1525 8.95481L45.1455 8.9653L45.9775 9.52ZM44.8255 14.704V15.704H45.8255V14.704H44.8255ZM39.0655 14.704H38.0655V15.704H39.0655V14.704ZM40.9215 7.152L40.1014 6.57981L40.0969 6.5863L40.0924 6.59286L40.9215 7.152ZM46.1055 2.864L45.6864 1.95601L45.6797 1.95918L46.1055 2.864ZM61.1455 2.672L60.7583 3.594L60.7648 3.59668L61.1455 2.672ZM66.2655 6.64L65.4491 7.21746H65.4491L66.2655 6.64ZM67.0975 17.904L67.9799 18.3746L67.9861 18.3626L67.0975 17.904ZM64.4095 21.104L63.7998 20.3114L64.4095 21.104ZM60.8255 23.216L60.4279 22.2984L59.8255 22.5595V23.216H60.8255ZM60.8255 23.472H59.8255V24.2225L60.5462 24.4322L60.8255 23.472ZM66.7135 27.184L65.9632 27.845L66.7135 27.184ZM67.0975 40.944L66.28 40.368L66.2756 40.3743L66.2713 40.3807L67.0975 40.944ZM61.6575 45.296L62.0494 46.2161L62.0575 46.2125L61.6575 45.296ZM53.7855 46.768V45.768C50.4664 45.768 47.7314 45.2693 45.5455 44.3155L45.1455 45.232L44.7456 46.1485C47.2529 47.2427 50.278 47.768 53.7855 47.768V46.768ZM45.1455 45.232L45.5593 44.3216C43.3663 43.3248 41.7589 41.9536 40.6826 40.2237L39.8335 40.752L38.9845 41.2803C40.2974 43.3904 42.2313 45.0058 44.7317 46.1424L45.1455 45.232ZM39.8335 40.752L40.6826 40.2237C39.6023 38.4875 39.0415 36.3948 39.0415 33.904H38.0415H37.0415C37.0415 36.7039 37.6754 39.1765 38.9845 41.2803L39.8335 40.752ZM38.0415 33.904H39.0415V33.072H38.0415H37.0415V33.904H38.0415ZM38.0415 33.072V34.072H43.7375V33.072V32.072H38.0415V33.072ZM43.7375 33.072H42.7375V33.904H43.7375H44.7375V33.072H43.7375ZM43.7375 33.904H42.7375C42.7375 36.7746 43.6513 39.109 45.5876 40.7474L46.2335 39.984L46.8795 39.2206C45.4878 38.043 44.7375 36.3241 44.7375 33.904H43.7375ZM46.2335 39.984L45.6088 40.7649C47.548 42.3162 50.1424 43.032 53.2735 43.032V42.032V41.032C50.4313 41.032 48.3323 40.3824 46.8582 39.2031L46.2335 39.984ZM53.2735 42.032V43.032C56.3973 43.032 59.0272 42.3627 61.0777 40.9321L60.5055 40.112L59.9333 39.2919C58.3145 40.4213 56.123 41.032 53.2735 41.032V42.032ZM60.5055 40.112L61.0903 40.9232C63.2539 39.3634 64.2575 36.9257 64.2575 33.84H63.2575H62.2575C62.2575 36.4717 61.4265 38.2153 59.9207 39.3008L60.5055 40.112ZM63.2575 33.84H64.2575C64.2575 31.6051 63.7333 29.7326 62.5345 28.3774L61.7855 29.04L61.0365 29.7026C61.8004 30.5661 62.2575 31.8936 62.2575 33.84H63.2575ZM61.7855 29.04L62.5345 28.3774C61.4103 27.1065 59.9535 26.2428 58.2064 25.7706L57.9455 26.736L57.6846 27.7014C59.0949 28.0825 60.1981 28.7548 61.0365 29.7026L61.7855 29.04ZM57.9455 26.736L58.2377 25.7796C56.599 25.2789 54.8571 25.032 53.0175 25.032V26.032V27.032C54.6766 27.032 56.2201 27.2544 57.6533 27.6923L57.9455 26.736ZM53.0175 26.032V25.032H48.4095V26.032V27.032H53.0175V26.032ZM48.4095 26.032H49.4095V21.296H48.4095H47.4095V26.032H48.4095ZM48.4095 21.296V22.296H53.2095V21.296V20.296H48.4095V21.296ZM53.2095 21.296V22.296C54.9374 22.296 56.5512 22.0229 58.0406 21.4643L57.6895 20.528L57.3384 19.5917C56.0972 20.0571 54.7243 20.296 53.2095 20.296V21.296ZM57.6895 20.528L58.0406 21.4643C59.5872 20.8843 60.8407 19.93 61.7713 18.6075L60.9535 18.032L60.1357 17.4565C59.445 18.438 58.5224 19.1476 57.3384 19.5917L57.6895 20.528ZM60.9535 18.032L61.7673 18.6132C62.7717 17.2071 63.2335 15.4516 63.2335 13.424H62.2335H61.2335C61.2335 15.1511 60.842 16.4676 60.1398 17.4508L60.9535 18.032ZM62.2335 13.424H63.2335C63.2335 11.5701 62.8156 9.96104 61.8931 8.6797L61.0815 9.264L60.27 9.8483C60.8834 10.7003 61.2335 11.8646 61.2335 13.424H62.2335ZM61.0815 9.264L61.9084 8.70169C61.0633 7.45881 59.8965 6.54815 58.4449 5.96752L58.0735 6.896L57.7021 7.82448C58.8106 8.26785 59.6491 8.93585 60.2546 9.82631L61.0815 9.264ZM58.0735 6.896L58.4711 5.97845C57.0535 5.36412 55.5084 5.064 53.8495 5.064V6.064V7.064C55.2626 7.064 56.5336 7.31854 57.6759 7.81355L58.0735 6.896ZM53.8495 6.064V5.064C52.0248 5.064 50.3495 5.38374 48.8407 6.04384L49.2415 6.96L49.6423 7.87616C50.8642 7.34159 52.2609 7.064 53.8495 7.064V6.064ZM49.2415 6.96L48.8651 6.03353C47.3307 6.65691 46.086 7.62813 45.1597 8.9445L45.9775 9.52L46.7953 10.0955C47.4903 9.10786 48.4217 8.37242 49.6179 7.88647L49.2415 6.96ZM45.9775 9.52L45.1455 8.9653C44.2423 10.32 43.8255 11.9772 43.8255 13.872H44.8255H45.8255C45.8255 12.2682 46.1767 11.024 46.8096 10.0747L45.9775 9.52ZM44.8255 13.872H43.8255V14.704H44.8255H45.8255V13.872H44.8255ZM44.8255 14.704V13.704H39.0655V14.704V15.704H44.8255V14.704ZM39.0655 14.704H40.0655V13.552H39.0655H38.0655V14.704H39.0655ZM39.0655 13.552H40.0655C40.0655 11.2987 40.6356 9.36434 41.7506 7.71114L40.9215 7.152L40.0924 6.59286C38.7327 8.60899 38.0655 10.9413 38.0655 13.552H39.0655ZM40.9215 7.152L41.7416 7.72418C42.9141 6.0437 44.5013 4.72411 46.5313 3.76882L46.1055 2.864L45.6797 1.95918C43.3577 3.05189 41.489 4.59096 40.1014 6.57981L40.9215 7.152ZM46.1055 2.864L46.5246 3.77196C48.5914 2.81805 50.9832 2.328 53.7215 2.328V1.328V0.327999C50.7425 0.327999 48.057 0.861952 45.6865 1.95604L46.1055 2.864ZM53.7215 1.328V2.328C56.4327 2.328 58.7711 2.75935 60.7583 3.59398L61.1455 2.672L61.5327 1.75002C59.2533 0.792645 56.6424 0.327999 53.7215 0.327999V1.328ZM61.1455 2.672L60.7648 3.59668C62.7834 4.42789 64.3318 5.63783 65.4491 7.21746L66.2655 6.64L67.0819 6.06253C65.7246 4.1435 63.8596 2.70811 61.5263 1.74732L61.1455 2.672ZM66.2655 6.64L65.4491 7.21746C66.5452 8.76715 67.1215 10.7096 67.1215 13.104H68.1215H69.1215C69.1215 10.3784 68.4605 8.01152 67.0819 6.06253L66.2655 6.64ZM68.1215 13.104H67.1215C67.1215 14.8625 66.8017 16.2967 66.2089 17.4454L67.0975 17.904L67.9861 18.3626C68.7586 16.8659 69.1215 15.1002 69.1215 13.104H68.1215ZM67.0975 17.904L66.2152 17.4334C65.5969 18.5926 64.7922 19.548 63.7998 20.3114L64.4095 21.104L65.0192 21.8966C66.2455 20.9534 67.2328 19.7754 67.9799 18.3746L67.0975 17.904ZM64.4095 21.104L63.7998 20.3114C62.7555 21.1147 61.6321 21.7766 60.4279 22.2984L60.8255 23.216L61.2231 24.1336C62.579 23.546 63.8448 22.8 65.0192 21.8966L64.4095 21.104ZM60.8255 23.216H59.8255V23.472H60.8255H61.8255V23.216H60.8255ZM60.8255 23.472L60.5462 24.4322C62.7151 25.0632 64.513 26.1989 65.9632 27.845L66.7135 27.184L67.4639 26.523C65.7567 24.5851 63.6292 23.2462 61.1048 22.5118L60.8255 23.472ZM66.7135 27.184L65.9632 27.845C67.3481 29.4172 68.0815 31.5113 68.0815 34.224H69.0815H70.0815C70.0815 31.134 69.2362 28.5348 67.4639 26.523L66.7135 27.184ZM69.0815 34.224H68.0815C68.0815 36.649 67.4685 38.6812 66.28 40.368L67.0975 40.944L67.915 41.52C69.3719 39.4521 70.0815 37.0043 70.0815 34.224H69.0815ZM67.0975 40.944L66.2713 40.3807C65.1103 42.0834 63.4542 43.4209 61.2576 44.3795L61.6575 45.296L62.0575 46.2125C64.5541 45.1231 66.5247 43.5593 67.9237 41.5073L67.0975 40.944ZM61.6575 45.296L61.2657 44.376C59.1053 45.2961 56.6182 45.768 53.7855 45.768V46.768V47.768C56.8409 47.768 59.6017 47.2586 62.0494 46.216L61.6575 45.296Z" fill="#E81F26" mask="url(#path-1-outside-1_446_4272)"/>
</svg>
