<svg width="1440" height="607" viewBox="0 0 1440 607" fill="none" xmlns="http://www.w3.org/2000/svg">
<g style="mix-blend-mode:darken" opacity="0.02">
<circle cx="720" cy="324" r="810" stroke="#333333" stroke-width="20"/>
<circle cx="720" cy="324" r="770" stroke="#333333" stroke-width="20"/>
<g filter="url(#filter0_d_446_4140)">
<circle cx="720" cy="324" r="730" stroke="#333333" stroke-width="20" shape-rendering="crispEdges"/>
</g>
<circle cx="720" cy="324" r="690" stroke="#333333" stroke-width="20"/>
<circle cx="720" cy="324" r="650" stroke="#333333" stroke-width="20"/>
<circle cx="720" cy="324" r="610" stroke="#333333" stroke-width="20"/>
<circle cx="720" cy="324" r="570" stroke="#333333" stroke-width="20"/>
<circle cx="720" cy="324" r="530" stroke="#333333" stroke-width="20"/>
<circle cx="720" cy="324" r="490" stroke="#333333" stroke-width="20"/>
<circle cx="720" cy="324" r="450" stroke="#333333" stroke-width="20"/>
<circle cx="720" cy="324" r="410" stroke="#333333" stroke-width="20"/>
<circle cx="720" cy="324" r="370" stroke="#333333" stroke-width="20"/>
<circle cx="720" cy="324" r="330" stroke="#333333" stroke-width="20"/>
<circle cx="720" cy="324" r="290" stroke="#333333" stroke-width="20"/>
<circle cx="720" cy="324" r="250" stroke="#333333" stroke-width="20"/>
<circle cx="720" cy="324" r="210" stroke="#333333" stroke-width="20"/>
<circle cx="720" cy="324" r="170" stroke="#333333" stroke-width="20"/>
<circle cx="720" cy="324" r="130" stroke="#333333" stroke-width="20"/>
<circle cx="720" cy="324" r="90" stroke="#333333" stroke-width="20"/>
<circle cx="720" cy="324" r="50" stroke="#333333" stroke-width="20"/>
</g>
<defs>
<filter id="filter0_d_446_4140" x="-24" y="-416" width="1488" height="1488" filterUnits="userSpaceOnUse" color-interpolation-filters="sRGB">
<feFlood flood-opacity="0" result="BackgroundImageFix"/>
<feColorMatrix in="SourceAlpha" type="matrix" values="0 0 0 0 0 0 0 0 0 0 0 0 0 0 0 0 0 0 127 0" result="hardAlpha"/>
<feOffset dy="4"/>
<feGaussianBlur stdDeviation="2"/>
<feComposite in2="hardAlpha" operator="out"/>
<feColorMatrix type="matrix" values="0 0 0 0 0 0 0 0 0 0 0 0 0 0 0 0 0 0 0.25 0"/>
<feBlend mode="normal" in2="BackgroundImageFix" result="effect1_dropShadow_446_4140"/>
<feBlend mode="normal" in="SourceGraphic" in2="effect1_dropShadow_446_4140" result="shape"/>
</filter>
</defs>
</svg>
