<svg width="18" height="13" viewBox="0 0 18 13" fill="none" xmlns="http://www.w3.org/2000/svg">
<path d="M16.888 2.35661C17.25 3.63493 17.25 6.37419 17.25 6.37419C17.25 6.37419 17.25 9.08301 16.888 10.3918C16.707 11.1222 16.1339 11.6701 15.4401 11.8527C14.1431 12.1875 9.01508 12.1875 9.01508 12.1875C9.01508 12.1875 3.85695 12.1875 2.55987 11.8527C1.86609 11.6701 1.29296 11.1222 1.11197 10.3918C0.75 9.08301 0.75 6.37419 0.75 6.37419C0.75 6.37419 0.75 3.63493 1.11197 2.35661C1.29296 1.62614 1.86609 1.04785 2.55987 0.865234C3.85695 0.5 9.01508 0.5 9.01508 0.5C9.01508 0.5 14.1431 0.5 15.4401 0.865234C16.1339 1.04785 16.707 1.62614 16.888 2.35661ZM7.32587 8.83952L11.6092 6.37419L7.32587 3.90885V8.83952Z" fill="white"/>
</svg>
