<svg width="16" height="16" viewBox="0 0 16 16" fill="none" xmlns="http://www.w3.org/2000/svg">
<path fill-rule="evenodd" clip-rule="evenodd" d="M8.50938 4.796V6.493C8.86476 5.95168 9.3546 5.5119 9.93095 5.21671C10.5073 4.92152 11.1504 4.78103 11.7974 4.809C15.2524 4.809 15.9994 6.969 15.9994 9.779V15.5H12.7994V10.428C12.7994 9.218 12.5554 7.662 10.6714 7.662C8.84438 7.662 8.53238 8.979 8.53238 10.338V15.5H5.34238V4.796H8.50938ZM3.19938 2.106C3.19899 2.423 3.10502 2.73284 2.92926 2.99665C2.7535 3.26047 2.50377 3.46653 2.21138 3.589C1.91911 3.71048 1.5973 3.74226 1.28692 3.68029C0.976529 3.61832 0.691597 3.4654 0.468382 3.241C0.244748 3.01646 0.0924967 2.73081 0.0307744 2.41997C-0.030948 2.10913 0.000614703 1.78698 0.121493 1.49403C0.242371 1.20108 0.447167 0.950407 0.710129 0.773539C0.973091 0.596671 1.28248 0.501502 1.59938 0.5C1.81 0.499999 2.01855 0.541582 2.21306 0.622364C2.40758 0.703147 2.58423 0.821539 2.73288 0.970748C2.88153 1.11996 2.99926 1.29705 3.07932 1.49186C3.15937 1.68668 3.20017 1.89538 3.19938 2.106Z" fill="white"/>
<path d="M3.2 4.80859H0V15.4996H3.2V4.80859Z" fill="white"/>
</svg>
