<svg width="20" height="20" viewBox="0 0 20 20" fill="none" xmlns="http://www.w3.org/2000/svg">
    <path d="M9.99935 18.9587C5.05768 18.9587 1.04102 14.942 1.04102 10.0003C1.04102 5.05866 5.05768 1.04199 9.99935 1.04199C14.941 1.04199 18.9577 5.05866 18.9577 10.0003C18.9577 14.942 14.941 18.9587 9.99935 18.9587ZM9.99935 2.29199C5.74935 2.29199 2.29102 5.75033 2.29102 10.0003C2.29102 14.2503 5.74935 17.7087 9.99935 17.7087C14.2493 17.7087 17.7077 14.2503 17.7077 10.0003C17.7077 5.75033 14.2493 2.29199 9.99935 2.29199Z" fill="#606060"/>
    <path d="M7.49922 18.125H6.66589C6.32422 18.125 6.04089 17.8417 6.04089 17.5C6.04089 17.1583 6.30755 16.8833 6.64922 16.875C5.34089 12.4083 5.34089 7.59167 6.64922 3.125C6.30755 3.11667 6.04089 2.84167 6.04089 2.5C6.04089 2.15833 6.32422 1.875 6.66589 1.875H7.49922C7.69922 1.875 7.89089 1.975 8.00755 2.13333C8.12422 2.3 8.15755 2.50833 8.09089 2.7C6.52422 7.40833 6.52422 12.5917 8.09089 17.3083C8.15755 17.5 8.12422 17.7083 8.00755 17.875C7.89089 18.025 7.69922 18.125 7.49922 18.125Z" fill="#606060"/>
    <path d="M12.5 18.1252C12.4333 18.1252 12.3667 18.1169 12.3 18.0919C11.975 17.9836 11.7917 17.6252 11.9083 17.3002C13.475 12.5919 13.475 7.40856 11.9083 2.6919C11.8 2.3669 11.975 2.00856 12.3 1.90023C12.6333 1.7919 12.9833 1.9669 13.0917 2.2919C14.75 7.25856 14.75 12.7252 13.0917 17.6836C13.0083 17.9586 12.7583 18.1252 12.5 18.1252Z" fill="#606060"/>
    <path d="M10 14.333C7.675 14.333 5.35833 14.008 3.125 13.3497C3.11667 13.683 2.84167 13.958 2.5 13.958C2.15833 13.958 1.875 13.6747 1.875 13.333V12.4997C1.875 12.2997 1.975 12.108 2.13333 11.9913C2.3 11.8747 2.50833 11.8413 2.7 11.908C7.40833 13.4747 12.6 13.4747 17.3083 11.908C17.5 11.8413 17.7083 11.8747 17.875 11.9913C18.0417 12.108 18.1333 12.2997 18.1333 12.4997V13.333C18.1333 13.6747 17.85 13.958 17.5083 13.958C17.1667 13.958 16.8917 13.6913 16.8833 13.3497C14.6417 14.008 12.325 14.333 10 14.333Z" fill="#606060"/>
    <path d="M17.4992 8.12546C17.4325 8.12546 17.3658 8.11712 17.2992 8.09212C12.5908 6.52546 7.39917 6.52546 2.69084 8.09212C2.3575 8.20046 2.0075 8.02546 1.89917 7.70046C1.79917 7.36712 1.97417 7.01712 2.29917 6.90879C7.26584 5.25046 12.7325 5.25046 17.6908 6.90879C18.0158 7.01712 18.1992 7.37546 18.0825 7.70046C18.0075 7.95879 17.7575 8.12546 17.4992 8.12546Z" fill="#606060"/>
</svg>
