<svg width="22" height="22" viewBox="0 0 22 22" fill="none" xmlns="http://www.w3.org/2000/svg">
<path d="M11.0184 6.74609C8.66127 6.74609 6.78292 8.66127 6.78292 10.9816C6.78292 13.3387 8.66127 15.2171 11.0184 15.2171C13.3387 15.2171 15.2539 13.3387 15.2539 10.9816C15.2539 8.66127 13.3387 6.74609 11.0184 6.74609ZM11.0184 13.7439C9.50837 13.7439 8.25614 12.5285 8.25614 10.9816C8.25614 9.47154 9.47154 8.25614 11.0184 8.25614C12.5285 8.25614 13.7439 9.47154 13.7439 10.9816C13.7439 12.5285 12.5285 13.7439 11.0184 13.7439ZM16.3956 6.59877C16.3956 6.04632 15.9537 5.60435 15.4012 5.60435C14.8488 5.60435 14.4068 6.04632 14.4068 6.59877C14.4068 7.15123 14.8488 7.59319 15.4012 7.59319C15.9537 7.59319 16.3956 7.15123 16.3956 6.59877ZM19.1948 7.59319C19.1211 6.2673 18.8265 5.08873 17.8689 4.13114C16.9113 3.17355 15.7327 2.87891 14.4068 2.80525C13.0441 2.73158 8.95591 2.73158 7.59319 2.80525C6.2673 2.87891 5.12556 3.17355 4.13114 4.13114C3.17355 5.08873 2.87891 6.2673 2.80525 7.59319C2.73158 8.95591 2.73158 13.0441 2.80525 14.4068C2.87891 15.7327 3.17355 16.8744 4.13114 17.8689C5.12556 18.8265 6.2673 19.1211 7.59319 19.1948C8.95591 19.2684 13.0441 19.2684 14.4068 19.1948C15.7327 19.1211 16.9113 18.8265 17.8689 17.8689C18.8265 16.8744 19.1211 15.7327 19.1948 14.4068C19.2684 13.0441 19.2684 8.95591 19.1948 7.59319ZM17.4269 15.8432C17.1691 16.5798 16.5798 17.1323 15.88 17.4269C14.7751 17.8689 12.197 17.7584 11.0184 17.7584C9.80301 17.7584 7.22489 17.8689 6.15681 17.4269C5.4202 17.1323 4.86775 16.5798 4.5731 15.8432C4.13114 14.7751 4.24163 12.197 4.24163 10.9816C4.24163 9.80301 4.13114 7.22489 4.5731 6.11998C4.86775 5.4202 5.4202 4.86775 6.15681 4.5731C7.22489 4.13114 9.80301 4.24163 11.0184 4.24163C12.197 4.24163 14.7751 4.13114 15.88 4.5731C16.5798 4.83092 17.1323 5.4202 17.4269 6.11998C17.8689 7.22489 17.7584 9.80301 17.7584 10.9816C17.7584 12.197 17.8689 14.7751 17.4269 15.8432Z" fill="#646464"/>
</svg>
