<svg width="40" height="40" viewBox="0 0 40 40" fill="none" xmlns="http://www.w3.org/2000/svg">
<rect width="40" height="40" rx="20" fill="#FDFDFD" fill-opacity="0.35"/>
<path d="M4 20C4 14.3125 7 9.0625 12 6.1875C16.9375 3.3125 23 3.3125 28 6.1875C32.9375 9.0625 36 14.3125 36 20C36 25.75 32.9375 31 28 33.875C23 36.75 16.9375 36.75 12 33.875C7 31 4 25.75 4 20ZM15.75 13.25C15.25 13.5 15 14 15 14.5V25.5C15 26.0625 15.25 26.5625 15.75 26.8125C16.1875 27.125 16.8125 27.0625 17.25 26.8125L26.25 21.3125C26.6875 21 27 20.5625 27 20C27 19.5 26.6875 19 26.25 18.75L17.25 13.25C16.8125 12.9375 16.1875 12.9375 15.75 13.1875V13.25Z" fill="#FDFDFD"/>
</svg>
