<svg width="538" height="331" viewBox="0 0 538 331" fill="none" xmlns="http://www.w3.org/2000/svg">
<path d="M243.263 256.068H223.824C218.935 256.068 214.973 252.105 214.973 247.217V153.953C214.973 149.064 218.935 145.102 223.824 145.102H528.194C533.082 145.102 537.045 149.064 537.045 153.953V182.223M477.201 256.068H424.247" stroke="#6E6E6E" stroke-width="1.3996"/>
<rect x="215.875" y="146.004" width="320.268" height="108.92" rx="8.6559" fill="white"/>
<rect x="230.301" y="160.43" width="55.542" height="51.2141" rx="8.6559" fill="#F0F0F0"/>
<circle cx="251.939" cy="178.46" r="3.60662" fill="#BBBBBB"/>
<path d="M247.612 187.117L240.398 197.577H276.465L262.76 176.658L253.382 191.085L247.612 187.117Z" fill="#BBBBBB" stroke="#BBBBBB" stroke-width="0.721325"/>
<rect x="294.5" y="160.43" width="115.412" height="14.4265" rx="6.49192" fill="#BBBBBB"/>
<rect x="294.5" y="184.955" width="64.1979" height="14.4265" rx="6.49192" fill="#BBBBBB"/>
<circle cx="496.471" cy="167.643" r="7.21325" fill="#BBBBBB"/>
<circle cx="514.502" cy="167.643" r="7.21325" fill="#BBBBBB"/>
<rect x="294.5" y="219.578" width="69.9685" height="7.21325" rx="3.60662" fill="#DDDDDD"/>
<rect x="373.125" y="219.578" width="69.9685" height="7.21325" rx="3.60662" fill="#DDDDDD"/>
<rect x="451.75" y="219.578" width="69.9685" height="7.21325" rx="3.60662" fill="#DDDDDD"/>
<rect x="294.5" y="233.283" width="227.217" height="7.21325" rx="3.60662" fill="#DDDDDD"/>
<path d="M29.2902 111.966H9.85096C4.96271 111.966 1 108.003 1 103.115V9.85097C1 4.96272 4.96271 1 9.85096 1H314.222C319.11 1 323.072 4.96271 323.072 9.85096V38.1218M263.228 111.966H210.275" stroke="#6E6E6E" stroke-width="1.3996"/>
<rect x="1.90234" y="1.90234" width="320.268" height="108.92" rx="8.6559" fill="white"/>
<rect x="16.3281" y="16.3281" width="55.542" height="51.2141" rx="8.6559" fill="#F0F0F0"/>
<circle cx="37.966" cy="34.3625" r="3.60662" fill="#BBBBBB"/>
<path d="M33.6429 43.0178L26.4297 53.477H62.4959L48.7908 32.5586L39.4135 46.9851L33.6429 43.0178Z" fill="#BBBBBB" stroke="#BBBBBB" stroke-width="0.721325"/>
<rect x="80.5273" y="16.3281" width="115.412" height="14.4265" rx="6.49192" fill="#BBBBBB"/>
<rect x="80.5273" y="40.8535" width="64.1979" height="14.4265" rx="6.49192" fill="#BBBBBB"/>
<circle cx="282.498" cy="23.5414" r="7.21325" fill="#BBBBBB"/>
<circle cx="300.53" cy="23.5414" r="7.21325" fill="#BBBBBB"/>
<rect x="80.5273" y="75.4766" width="69.9685" height="7.21325" rx="3.60662" fill="#DDDDDD"/>
<rect x="159.152" y="75.4766" width="69.9685" height="7.21325" rx="3.60662" fill="#DDDDDD"/>
<rect x="237.777" y="75.4766" width="69.9685" height="7.21325" rx="3.60662" fill="#DDDDDD"/>
<rect x="80.5273" y="89.1816" width="227.217" height="7.21325" rx="3.60662" fill="#DDDDDD"/>
<path d="M50.6562 325.327C50.0148 326.06 49.2349 326.658 48.3612 327.089C47.4874 327.519 46.5369 327.773 45.5639 327.836C44.5908 327.899 43.6143 327.769 42.6901 327.455C41.7659 327.141 40.9121 326.648 40.1774 326.005C39.4427 325.361 38.8416 324.58 38.4083 323.705C37.975 322.831 37.718 321.88 37.6521 320.907C37.5861 319.934 37.7125 318.958 38.0239 318.035C38.3354 317.112 38.8258 316.261 39.4672 315.528L45.0617 320.428L50.6562 325.327Z" fill="#D9D9D9"/>
<path d="M146.62 216.992L111.938 252.776" stroke="black" stroke-width="4.40419"/>
<rect x="106.609" y="243.131" width="22.841" height="100.478" rx="3.70673" transform="rotate(45.0066 106.609 243.131)" fill="#B1B1B1"/>
<circle cx="228.097" cy="131.11" r="110.986" stroke="#D8D8D8" stroke-width="15.8551"/>
<rect x="66.7812" y="73.7793" width="400.561" height="125.401" rx="10.826" fill="white"/>
<rect x="84.8242" y="91.8242" width="69.4666" height="64.0536" rx="10.826" fill="#F9F3F4"/>
<path d="M134.447 115.116L129.197 109.865L120.013 119.049L110.829 109.865L105.578 115.116L114.762 124.3L105.578 133.484L110.829 138.734L120.013 129.55L129.197 138.734L134.447 133.484L125.263 124.3L134.447 115.116Z" fill="#AD261E"/>
<circle cx="417.022" cy="107.022" r="9.02164" fill="#BBBBBB"/>
<circle cx="439.576" cy="107.022" r="9.02164" fill="#BBBBBB"/>
<rect x="165.121" y="154.977" width="87.5099" height="9.02164" rx="4.51082" fill="#BBBBBB" fill-opacity="0.5"/>
<rect x="263.457" y="154.977" width="87.5099" height="9.02164" rx="4.51082" fill="#BBBBBB" fill-opacity="0.5"/>
<rect x="361.793" y="154.977" width="87.5099" height="9.02164" rx="4.51082" fill="#BBBBBB" fill-opacity="0.5"/>
<rect x="165.121" y="172.117" width="284.182" height="9.02164" rx="4.51082" fill="#BBBBBB" fill-opacity="0.5"/>
<path d="M101.966 199.18H77.6072C71.6282 199.18 66.7812 194.333 66.7812 188.354V84.6053C66.7812 78.6262 71.6282 73.7793 77.6072 73.7793H456.516C462.495 73.7793 467.342 78.6262 467.342 84.6053V115.73M392.913 199.18H327.056" stroke="#6E6E6E" stroke-width="2.0994"/>
</svg>
