<svg width="22" height="22" viewBox="0 0 22 22" fill="none" xmlns="http://www.w3.org/2000/svg">
<path d="M18.888 7.35661C19.25 8.63493 19.25 11.3742 19.25 11.3742C19.25 11.3742 19.25 14.083 18.888 15.3918C18.707 16.1222 18.1339 16.6701 17.4401 16.8527C16.1431 17.1875 11.0151 17.1875 11.0151 17.1875C11.0151 17.1875 5.85695 17.1875 4.55987 16.8527C3.86609 16.6701 3.29296 16.1222 3.11197 15.3918C2.75 14.083 2.75 11.3742 2.75 11.3742C2.75 11.3742 2.75 8.63493 3.11197 7.35661C3.29296 6.62614 3.86609 6.04785 4.55987 5.86523C5.85695 5.5 11.0151 5.5 11.0151 5.5C11.0151 5.5 16.1431 5.5 17.4401 5.86523C18.1339 6.04785 18.707 6.62614 18.888 7.35661ZM9.32587 13.8395L13.6092 11.3742L9.32587 8.90885V13.8395Z" fill="#646464"/>
</svg>
