<svg width="70" height="48" viewBox="0 0 70 48" fill="none" xmlns="http://www.w3.org/2000/svg">
<mask id="path-1-outside-1_446_4267" maskUnits="userSpaceOnUse" x="0.333984" y="0" width="70" height="48" fill="black">
<rect fill="white" x="0.333984" width="70" height="48"/>
<path d="M16.702 46.768C14.3127 46.768 12.1793 46.4267 10.302 45.744C8.42465 45.0187 6.82465 43.8027 5.50198 42.096C4.17932 40.3467 3.17665 38.0213 2.49398 35.12C1.81132 32.176 1.46998 28.4853 1.46998 24.048C1.46998 19.6107 1.81132 15.9413 2.49398 13.04C3.17665 10.096 4.17932 7.77066 5.50198 6.064C6.82465 4.31467 8.42465 3.09866 10.302 2.416C12.1793 1.69066 14.3127 1.328 16.702 1.328C19.0913 1.328 21.2033 1.69066 23.038 2.416C24.9153 3.09866 26.5153 4.31467 27.838 6.064C29.1607 7.77066 30.1633 10.096 30.846 13.04C31.5287 15.9413 31.87 19.6107 31.87 24.048C31.87 28.4853 31.5287 32.176 30.846 35.12C30.1633 38.0213 29.1607 40.3467 27.838 42.096C26.5153 43.8027 24.9153 45.0187 23.038 45.744C21.2033 46.4267 19.0913 46.768 16.702 46.768ZM16.702 42.032C19.134 42.032 21.0113 41.4133 22.334 40.176C23.6993 38.9387 24.638 37.104 25.15 34.672C25.7047 32.24 25.982 29.2107 25.982 25.584V22.64C25.982 18.9707 25.7047 15.92 25.15 13.488C24.638 11.0133 23.6993 9.15733 22.334 7.92C21.0113 6.68267 19.134 6.064 16.702 6.064C14.27 6.064 12.3713 6.68267 11.006 7.92C9.64065 9.15733 8.68065 10.992 8.12599 13.424C7.61398 15.856 7.35798 18.9067 7.35798 22.576V25.456C7.35798 29.0827 7.61398 32.1333 8.12599 34.608C8.68065 37.0827 9.64065 38.9387 11.006 40.176C12.3713 41.4133 14.27 42.032 16.702 42.032ZM38.2215 46V44.144C38.2215 42.352 38.5628 40.7093 39.2455 39.216C39.9708 37.68 40.9095 36.2933 42.0615 35.056C43.2562 33.776 44.6002 32.56 46.0935 31.408C47.5868 30.256 49.1015 29.1253 50.6375 28.016C52.7282 26.5653 54.6482 25.1147 56.3975 23.664C58.1895 22.2133 59.6188 20.656 60.6855 18.992C61.7522 17.2853 62.2855 15.3867 62.2855 13.296C62.2855 11.9733 61.9655 10.7787 61.3255 9.712C60.7282 8.60266 59.8108 7.728 58.5735 7.088C57.3362 6.448 55.7575 6.128 53.8375 6.128C51.5762 6.128 49.7628 6.512 48.3975 7.28C47.0322 8.048 46.0295 9.072 45.3895 10.352C44.7922 11.632 44.4935 13.04 44.4935 14.576V17.2H38.9255C38.8828 16.9867 38.8402 16.6667 38.7975 16.24C38.7548 15.7707 38.7335 15.2373 38.7335 14.64C38.7335 11.4827 39.4375 8.944 40.8455 7.024C42.2535 5.06133 44.1308 3.632 46.4775 2.736C48.8242 1.79733 51.3628 1.328 54.0935 1.328C56.5255 1.328 58.6162 1.66933 60.3655 2.352C62.1148 2.992 63.5655 3.888 64.7175 5.04C65.8695 6.192 66.7228 7.51466 67.2775 9.008C67.8322 10.4587 68.1095 11.9947 68.1095 13.616C68.1095 15.6213 67.7468 17.456 67.0215 19.12C66.3388 20.784 65.3575 22.3413 64.0775 23.792C62.8402 25.2 61.3682 26.5653 59.6615 27.888C57.9975 29.2107 56.1842 30.5547 54.2215 31.92C52.8562 32.816 51.5122 33.776 50.1895 34.8C48.8668 35.7813 47.7362 36.784 46.7975 37.808C45.8588 38.832 45.2615 39.8133 45.0055 40.752H68.3655V46H38.2215Z"/>
</mask>
<path d="M10.302 45.744L9.94159 46.6768L9.95088 46.6804L9.96024 46.6838L10.302 45.744ZM5.50198 42.096L4.70427 42.6992L4.71157 42.7086L5.50198 42.096ZM2.49398 35.12L1.51983 35.3459L1.52057 35.349L2.49398 35.12ZM2.49398 13.04L3.46741 13.269L3.46814 13.2659L2.49398 13.04ZM5.50198 6.064L6.29246 6.67661L6.29964 6.66711L5.50198 6.064ZM10.302 2.416L10.6437 3.35579L10.6531 3.35238L10.6624 3.34879L10.302 2.416ZM23.038 2.416L22.6703 3.34596L22.6832 3.35105L22.6962 3.35579L23.038 2.416ZM27.838 6.064L27.0403 6.66715L27.0476 6.67657L27.838 6.064ZM30.846 13.04L29.8718 13.2659L29.8726 13.269L30.846 13.04ZM30.846 35.12L31.8194 35.349L31.8201 35.3459L30.846 35.12ZM27.838 42.096L28.6285 42.7086L28.6356 42.6991L27.838 42.096ZM23.038 45.744L23.3867 46.6813L23.3984 46.6768L23.038 45.744ZM22.334 40.176L21.6625 39.435L21.6566 39.4403L21.6508 39.4457L22.334 40.176ZM25.15 34.672L24.175 34.4496L24.1732 34.4578L24.1714 34.466L25.15 34.672ZM25.15 13.488L24.1707 13.6906L24.1728 13.7005L24.175 13.7104L25.15 13.488ZM22.334 7.92L21.6508 8.65027L21.6566 8.65567L21.6625 8.66099L22.334 7.92ZM11.006 7.92L11.6775 8.66099L11.006 7.92ZM8.12599 13.424L7.15102 13.2016L7.14916 13.2098L7.14744 13.218L8.12599 13.424ZM8.12599 34.608L7.14672 34.8106L7.14839 34.8187L7.1502 34.8267L8.12599 34.608ZM11.006 40.176L11.6775 39.435L11.006 40.176ZM16.702 46.768V45.768C14.407 45.768 12.3924 45.4401 10.6437 44.8042L10.302 45.744L9.96024 46.6838C11.9662 47.4132 14.2183 47.768 16.702 47.768V46.768ZM10.302 45.744L10.6624 44.8112C8.96727 44.1563 7.51198 43.0571 6.2924 41.4834L5.50198 42.096L4.71157 42.7086C6.13732 44.5482 7.88203 45.8811 9.94159 46.6768L10.302 45.744ZM5.50198 42.096L6.29964 41.4929C5.08537 39.8869 4.12896 37.7026 3.4674 34.891L2.49398 35.12L1.52057 35.349C2.22434 38.3401 3.27326 40.8064 4.70433 42.6991L5.50198 42.096ZM2.49398 35.12L3.46814 34.8941C2.8086 32.0499 2.46998 28.4412 2.46998 24.048H1.46998H0.469985C0.469985 28.5295 0.814034 32.3021 1.51983 35.3459L2.49398 35.12ZM1.46998 24.048H2.46998C2.46998 19.6542 2.80872 16.0685 3.4674 13.269L2.49398 13.04L1.52057 12.811C0.81392 15.8142 0.469985 19.5671 0.469985 24.048H1.46998ZM2.49398 13.04L3.46814 13.2659C4.13037 10.41 5.08613 8.23304 6.2924 6.67657L5.50198 6.064L4.71157 5.45143C3.2725 7.30828 2.22293 9.78199 1.51983 12.8141L2.49398 13.04ZM5.50198 6.064L6.29964 6.66711C7.51781 5.05598 8.96524 3.96615 10.6437 3.35579L10.302 2.416L9.96024 1.4762C7.88406 2.23118 6.13149 3.57335 4.70433 5.46089L5.50198 6.064ZM10.302 2.416L10.6624 3.34879C12.4054 2.67535 14.4133 2.328 16.702 2.328V1.328V0.327999C14.212 0.327999 11.9532 0.705982 9.94159 1.4832L10.302 2.416ZM16.702 1.328V2.328C18.9913 2.328 20.9746 2.67554 22.6703 3.34596L23.038 2.416L23.4056 1.48604C21.4321 0.705786 19.1913 0.327999 16.702 0.327999V1.328ZM23.038 2.416L22.6962 3.35579C24.3747 3.96615 25.8222 5.05598 27.0403 6.66711L27.838 6.064L28.6356 5.46089C27.2085 3.57335 25.4559 2.23118 23.3797 1.4762L23.038 2.416ZM27.838 6.064L27.0476 6.67657C28.2538 8.23304 29.2096 10.41 29.8718 13.2659L30.846 13.04L31.8201 12.8141C31.117 9.78199 30.0675 7.30828 28.6284 5.45143L27.838 6.064ZM30.846 13.04L29.8726 13.269C30.5313 16.0685 30.87 19.6542 30.87 24.048H31.87H32.87C32.87 19.5671 32.5261 15.8142 31.8194 12.811L30.846 13.04ZM31.87 24.048H30.87C30.87 28.4412 30.5314 32.0499 29.8718 34.8941L30.846 35.12L31.8201 35.3459C32.5259 32.3021 32.87 28.5295 32.87 24.048H31.87ZM30.846 35.12L29.8726 34.891C29.211 37.7026 28.2546 39.8869 27.0403 41.4929L27.838 42.096L28.6356 42.6991C30.0667 40.8064 31.1156 38.3401 31.8194 35.349L30.846 35.12ZM27.838 42.096L27.0476 41.4834C25.828 43.0571 24.3727 44.1563 22.6776 44.8112L23.038 45.744L23.3984 46.6768C25.4579 45.8811 27.2027 44.5482 28.6284 42.7086L27.838 42.096ZM23.038 45.744L22.6893 44.8068C20.9877 45.4399 18.9977 45.768 16.702 45.768V46.768V47.768C19.1849 47.768 21.4189 47.4134 23.3867 46.6812L23.038 45.744ZM16.702 42.032V43.032C19.299 43.032 21.4533 42.3693 23.0171 40.9063L22.334 40.176L21.6508 39.4457C20.5694 40.4574 18.969 41.032 16.702 41.032V42.032ZM22.334 40.176L23.0055 40.917C24.5732 39.4962 25.588 37.4454 26.1285 34.878L25.15 34.672L24.1714 34.466C23.6879 36.7626 22.8254 38.3811 21.6625 39.435L22.334 40.176ZM25.15 34.672L26.125 34.8944C26.7019 32.3647 26.982 29.255 26.982 25.584H25.982H24.982C24.982 29.1664 24.7074 32.1153 24.175 34.4496L25.15 34.672ZM25.982 25.584H26.982V22.64H25.982H24.982V25.584H25.982ZM25.982 22.64H26.982C26.982 18.9274 26.702 15.796 26.125 13.2656L25.15 13.488L24.175 13.7104C24.7073 16.044 24.982 19.014 24.982 22.64H25.982ZM25.15 13.488L26.1292 13.2854C25.5899 10.6787 24.5767 8.60295 23.0055 7.17901L22.334 7.92L21.6625 8.66099C22.8219 9.71171 23.686 11.3479 24.1707 13.6906L25.15 13.488ZM22.334 7.92L23.0171 7.18973C21.4533 5.72674 19.299 5.064 16.702 5.064V6.064V7.064C18.969 7.064 20.5694 7.63859 21.6508 8.65027L22.334 7.92ZM16.702 6.064V5.064C14.1029 5.064 11.9361 5.72753 10.3345 7.17901L11.006 7.92L11.6775 8.66099C12.8065 7.6378 14.4371 7.064 16.702 7.064V6.064ZM11.006 7.92L10.3345 7.17901C8.7719 8.59508 7.73547 10.639 7.15102 13.2016L8.12599 13.424L9.10095 13.6464C9.62583 11.345 10.5094 9.71958 11.6775 8.66099L11.006 7.92ZM8.12599 13.424L7.14744 13.218C6.61617 15.7415 6.35798 18.8669 6.35798 22.576H7.35798H8.35798C8.35798 18.9465 8.61179 15.9705 9.10454 13.63L8.12599 13.424ZM7.35798 22.576H6.35798V25.456H7.35798H8.35798V22.576H7.35798ZM7.35798 25.456H6.35798C6.35798 29.124 6.61641 32.2474 7.14672 34.8106L8.12599 34.608L9.10525 34.4054C8.61156 32.0192 8.35798 29.0413 8.35798 25.456H7.35798ZM8.12599 34.608L7.1502 34.8267C7.73343 37.4288 8.7684 39.4977 10.3345 40.917L11.006 40.176L11.6775 39.435C10.5129 38.3796 9.62788 36.7365 9.10178 34.3893L8.12599 34.608ZM11.006 40.176L10.3345 40.917C11.9361 42.3685 14.1029 43.032 16.702 43.032V42.032V41.032C14.4371 41.032 12.8065 40.4582 11.6775 39.435L11.006 40.176ZM38.2215 46H37.2215V47H38.2215V46ZM39.2455 39.216L38.3412 38.789L38.336 38.8002L39.2455 39.216ZM42.0615 35.056L41.3304 34.3737L41.3296 34.3746L42.0615 35.056ZM50.6375 28.016L50.0674 27.1944L50.0596 27.1998L50.052 27.2053L50.6375 28.016ZM56.3975 23.664L55.7682 22.8867L55.7592 22.8942L56.3975 23.664ZM60.6855 18.992L61.5274 19.5317L61.5335 19.522L60.6855 18.992ZM61.3255 9.712L60.445 10.1861L60.456 10.2066L60.468 10.2265L61.3255 9.712ZM58.5735 7.088L59.0329 6.19978L58.5735 7.088ZM45.3895 10.352L44.4951 9.90478L44.489 9.91687L44.4833 9.92911L45.3895 10.352ZM44.4935 17.2V18.2H45.4935V17.2H44.4935ZM38.9255 17.2L37.9449 17.3961L38.1057 18.2H38.9255V17.2ZM38.7975 16.24L37.8016 16.3305L37.8024 16.3395L38.7975 16.24ZM40.8455 7.024L41.6519 7.61539L41.658 7.60691L40.8455 7.024ZM46.4775 2.736L46.8342 3.67021L46.8416 3.6674L46.8489 3.66447L46.4775 2.736ZM60.3655 2.352L60.0019 3.28358L60.0119 3.28745L60.0219 3.29112L60.3655 2.352ZM67.2775 9.008L66.34 9.3562L66.3434 9.36514L67.2775 9.008ZM67.0215 19.12L66.1048 18.7204L66.1004 18.7304L66.0963 18.7404L67.0215 19.12ZM64.0775 23.792L63.3276 23.1304L63.3263 23.1319L64.0775 23.792ZM59.6615 27.888L59.0489 27.0975L59.0392 27.1052L59.6615 27.888ZM54.2215 31.92L54.7701 32.756L54.7814 32.7486L54.7925 32.7409L54.2215 31.92ZM50.1895 34.8L50.7853 35.6031L50.7936 35.597L50.8017 35.5907L50.1895 34.8ZM46.7975 37.808L47.5346 38.4837H47.5346L46.7975 37.808ZM45.0055 40.752L44.0407 40.4889L43.6962 41.752H45.0055V40.752ZM68.3655 40.752H69.3655V39.752H68.3655V40.752ZM68.3655 46V47H69.3655V46H68.3655ZM38.2215 46H39.2215V44.144H38.2215H37.2215V46H38.2215ZM38.2215 44.144H39.2215C39.2215 42.4822 39.5372 40.9831 40.155 39.6318L39.2455 39.216L38.336 38.8002C37.5884 40.4356 37.2215 42.2218 37.2215 44.144H38.2215ZM39.2455 39.216L40.1497 39.643C40.8313 38.1997 41.7119 36.899 42.7934 35.7374L42.0615 35.056L41.3296 34.3746C40.107 35.6877 39.1104 37.1603 38.3412 38.789L39.2455 39.216ZM42.0615 35.056L42.7925 35.7383C43.9474 34.5009 45.2507 33.3211 46.7043 32.1998L46.0935 31.408L45.4827 30.6162C43.9496 31.7989 42.5649 33.0511 41.3304 34.3737L42.0615 35.056ZM46.0935 31.408L46.7043 32.1998C48.1892 31.0542 49.6955 29.9299 51.223 28.8267L50.6375 28.016L50.052 27.2053C48.5075 28.3208 46.9844 29.4578 45.4827 30.6162L46.0935 31.408ZM50.6375 28.016L51.2076 28.8376C53.319 27.3725 55.2621 25.9047 57.0358 24.4338L56.3975 23.664L55.7592 22.8942C54.0342 24.3247 52.1373 25.7581 50.0674 27.1944L50.6375 28.016ZM56.3975 23.664L57.0267 24.4412C58.8883 22.9342 60.3943 21.2993 61.5274 19.5317L60.6855 18.992L59.8436 18.4523C58.8434 20.0127 57.4907 21.4924 55.7683 22.8868L56.3975 23.664ZM60.6855 18.992L61.5335 19.522C62.7035 17.65 63.2855 15.5664 63.2855 13.296H62.2855H61.2855C61.2855 15.2069 60.8008 16.9206 59.8375 18.462L60.6855 18.992ZM62.2855 13.296H63.2855C63.2855 11.804 62.9222 10.4295 62.183 9.1975L61.3255 9.712L60.468 10.2265C61.0088 11.1278 61.2855 12.1426 61.2855 13.296H62.2855ZM61.3255 9.712L62.206 9.2379C61.5032 7.93271 60.4294 6.92209 59.0329 6.19978L58.5735 7.088L58.1141 7.97622C59.1923 8.5339 59.9531 9.27262 60.445 10.1861L61.3255 9.712ZM58.5735 7.088L59.0329 6.19978C57.6102 5.46389 55.8601 5.128 53.8375 5.128V6.128V7.128C55.6549 7.128 57.0621 7.43211 58.1141 7.97622L58.5735 7.088ZM53.8375 6.128V5.128C51.4758 5.128 49.4741 5.52704 47.9072 6.40842L48.3975 7.28L48.8877 8.15158C50.0515 7.49695 51.6765 7.128 53.8375 7.128V6.128ZM48.3975 7.28L47.9072 6.40842C46.385 7.26466 45.2328 8.42926 44.4951 9.90478L45.3895 10.352L46.2839 10.7992C46.8262 9.71473 47.6793 8.83134 48.8877 8.15158L48.3975 7.28ZM45.3895 10.352L44.4833 9.92911C43.8189 11.3528 43.4935 12.9068 43.4935 14.576H44.4935H45.4935C45.4935 13.1732 45.7654 11.9112 46.2957 10.7749L45.3895 10.352ZM44.4935 14.576H43.4935V17.2H44.4935H45.4935V14.576H44.4935ZM44.4935 17.2V16.2H38.9255V17.2V18.2H44.4935V17.2ZM38.9255 17.2L39.9061 17.0039C39.8733 16.84 39.8344 16.5594 39.7925 16.1405L38.7975 16.24L37.8024 16.3395C37.8459 16.7739 37.8923 17.1333 37.9449 17.3961L38.9255 17.2ZM38.7975 16.24L39.7934 16.1495C39.7541 15.7169 39.7335 15.2147 39.7335 14.64H38.7335H37.7335C37.7335 15.26 37.7556 15.8244 37.8016 16.3305L38.7975 16.24ZM38.7335 14.64H39.7335C39.7335 11.6265 40.405 9.31561 41.6519 7.61536L40.8455 7.024L40.0391 6.43263C38.4699 8.57239 37.7335 11.3388 37.7335 14.64H38.7335ZM40.8455 7.024L41.658 7.60691C42.9471 5.81007 44.6629 4.49926 46.8342 3.67021L46.4775 2.736L46.1208 1.80178C43.5988 2.76474 41.5599 4.3126 40.0329 6.44109L40.8455 7.024ZM46.4775 2.736L46.8489 3.66447C49.0682 2.77674 51.4797 2.328 54.0935 2.328V1.328V0.327999C51.2459 0.327999 48.5801 0.817926 46.1061 1.80752L46.4775 2.736ZM54.0935 1.328V2.328C56.436 2.328 58.3971 2.65729 60.0019 3.28358L60.3655 2.352L60.729 1.42042C58.8352 0.68137 56.6149 0.327999 54.0935 0.327999V1.328ZM60.3655 2.352L60.0219 3.29112C61.6542 3.8883 62.975 4.71174 64.0104 5.7471L64.7175 5.04L65.4246 4.33289C64.156 3.06425 62.5754 2.09569 60.7091 1.41287L60.3655 2.352ZM64.7175 5.04L64.0104 5.7471C65.0631 6.79979 65.8366 8.00078 66.3401 9.35619L67.2775 9.008L68.2149 8.65981C67.609 7.02855 66.6759 5.5842 65.4246 4.33289L64.7175 5.04ZM67.2775 9.008L66.3434 9.36514C66.8526 10.6968 67.1095 12.1113 67.1095 13.616H68.1095H69.1095C69.1095 11.878 68.8117 10.2205 68.2115 8.65086L67.2775 9.008ZM68.1095 13.616H67.1095C67.1095 15.4983 66.7697 17.1951 66.1048 18.7204L67.0215 19.12L67.9382 19.5196C68.724 17.7169 69.1095 15.7444 69.1095 13.616H68.1095ZM67.0215 19.12L66.0963 18.7404C65.4591 20.2938 64.5395 21.757 63.3276 23.1304L64.0775 23.792L64.8273 24.4536C66.1755 22.9257 67.2186 21.2742 67.9467 19.4996L67.0215 19.12ZM64.0775 23.792L63.3263 23.1319C62.1367 24.4856 60.7127 25.8081 59.0489 27.0976L59.6615 27.888L60.2741 28.6784C62.0236 27.3225 63.5436 25.9144 64.8287 24.4521L64.0775 23.792ZM59.6615 27.888L59.0392 27.1052C57.3938 28.4131 55.5977 29.7444 53.6504 31.0991L54.2215 31.92L54.7925 32.7409C56.7706 31.3649 58.6012 30.0082 60.2837 28.6708L59.6615 27.888ZM54.2215 31.92L53.6728 31.084C52.2852 31.9946 50.9201 32.9697 49.5773 34.0093L50.1895 34.8L50.8017 35.5907C52.1042 34.5823 53.4271 33.6374 54.7701 32.756L54.2215 31.92ZM50.1895 34.8L49.5936 33.9969C48.229 35.0094 47.049 36.0538 46.0603 37.1323L46.7975 37.808L47.5346 38.4837C48.4233 37.5142 49.5046 36.5533 50.7853 35.6031L50.1895 34.8ZM46.7975 37.808L46.0603 37.1323C45.0571 38.2268 44.3527 39.345 44.0407 40.4889L45.0055 40.752L45.9702 41.0151C46.1703 40.2817 46.6606 39.4372 47.5346 38.4837L46.7975 37.808ZM45.0055 40.752V41.752H68.3655V40.752V39.752H45.0055V40.752ZM68.3655 40.752H67.3655V46H68.3655H69.3655V40.752H68.3655ZM68.3655 46V45H38.2215V46V47H68.3655V46Z" fill="#EC1F26" mask="url(#path-1-outside-1_446_4267)"/>
</svg>
