<svg width="116" height="118" viewBox="0 0 116 118" fill="none" xmlns="http://www.w3.org/2000/svg">
<path d="M43.8027 100.94L52.5841 103.217L50.3107 111.981L41.5293 109.703L41.8457 108.484L48.1007 110.106L48.747 107.615L45.001 106.643L45.3354 105.354L49.0814 106.326L49.7277 103.834L43.4728 102.211L43.8027 100.94Z" fill="#E81F26"/>
<path d="M32.0329 99.0392L34.2874 100.205L34.8661 99.0855L33.7468 98.5068L34.342 97.3556L33.2068 96.7687L33.8102 95.6014L37.2 97.354L36.6379 98.4412L37.7731 99.0282L37.1614 100.211L38.2807 100.79L39.4545 98.5195L41.773 99.7182L37.6562 107.681L30.8287 104.151L31.3908 103.064L30.2556 102.477L32.0329 99.0392ZM33.7325 101.357L32.5669 103.611L35.9567 105.364L37.7092 101.974L35.4067 100.783L34.8198 101.919L33.7325 101.357Z" fill="#E81F26"/>
<path d="M22.5222 90.7888L24.4544 92.4344L25.2714 91.4752L24.3121 90.6582L25.1524 89.6716L24.1795 88.8429L25.0314 87.8426L27.9366 90.3168L27.143 91.2487L28.1159 92.0773L27.2523 93.0914L28.2115 93.9083L29.8688 91.9624L31.8558 93.6547L26.0437 100.479L20.1922 95.4956L20.9859 94.5638L20.0129 93.7351L22.5222 90.7888ZM23.6532 93.4307L22.0075 95.363L24.9127 97.8372L27.387 94.932L25.4136 93.2514L24.585 94.2244L23.6532 93.4307Z" fill="#E81F26"/>
<path d="M17.8762 80.1058L18.5994 81.0934L19.645 80.3277L23.4522 85.5268L22.4647 86.2499L23.2303 87.2956L18.0167 91.1134L17.2936 90.1258L16.2625 90.8809L12.4447 85.6673L13.4322 84.9441L12.6771 83.913L17.8762 80.1058ZM19.397 82.1826L14.2415 85.9578L16.496 89.0366L21.6515 85.2614L19.397 82.1826Z" fill="#E81F26"/>
<path d="M10.7532 70.7987L11.7387 73.1375L12.8999 72.6483L12.4106 71.4871L13.6049 70.9839L13.1087 69.8062L14.3196 69.2959L15.8013 72.8125L14.6734 73.2878L15.1696 74.4655L13.9421 74.9827L14.4314 76.1438L16.7868 75.1513L17.8003 77.5565L9.53968 81.0373L6.55519 73.9544L7.68314 73.4791L7.18689 72.3014L10.7532 70.7987ZM10.575 73.6669L8.23615 74.6525L9.71791 78.169L13.2345 76.6873L12.228 74.2986L11.0503 74.7949L10.575 73.6669Z" fill="#E81F26"/>
<path d="M9.31104 61.6223L7.47948 61.9191L8.84335 63.0577L8.17928 63.6934L7.04222 62.3462L6.63224 64.0733L5.76237 63.8142L6.45686 62.1702L4.66991 62.7619L4.45422 61.8835L6.31199 61.5802L4.93502 60.4448L5.58597 59.8124L6.75248 61.1662L7.13302 59.4325L8.016 59.6883L7.33462 61.3291L9.09535 60.7439L9.31104 61.6223Z" fill="#E81F26"/>
<path d="M15.7008 45.0063L13.2772 53.7486L4.55227 51.3298L6.97581 42.5876L8.19002 42.9242L6.46373 49.1513L8.94418 49.8389L9.97803 46.1096L11.2616 46.4654L10.2278 50.1948L12.7082 50.8824L14.4345 44.6552L15.7008 45.0063Z" fill="#E81F26"/>
<path d="M71.6975 15.7674L62.9881 13.2283L65.5221 4.53616L74.2315 7.07521L73.8789 8.28486L67.6752 6.47628L66.9547 8.94742L70.6701 10.0305L70.2973 11.3093L66.5819 10.2262L65.8615 12.6973L72.0653 14.5059L71.6975 15.7674Z" fill="#E81F26"/>
<path d="M17.0891 32.9369L15.7919 35.1183L16.8749 35.7623L17.5189 34.6793L18.6328 35.3417L19.286 34.2433L20.4154 34.9149L18.465 38.1948L17.4129 37.5692L16.7598 38.6676L15.6149 37.9868L14.9709 39.0698L17.1678 40.3762L15.8338 42.6196L8.12911 38.038L12.0575 31.4317L13.1095 32.0573L13.7627 30.9589L17.0891 32.9369ZM14.675 34.4961L12.4936 33.1989L10.5432 36.4788L13.8231 38.4292L15.1479 36.2013L14.0494 35.5481L14.675 34.4961Z" fill="#E81F26"/>
<path d="M83.7482 17.3161L81.5841 15.9901L80.9258 17.0645L82.0002 17.7228L81.3231 18.8278L82.4128 19.4955L81.7263 20.6159L78.4725 18.6223L79.112 17.5786L78.0223 16.9109L78.7182 15.7752L77.6438 15.1169L76.3084 17.2963L74.0829 15.9328L78.7661 8.28938L85.3198 12.3049L84.6803 13.3485L85.77 14.0162L83.7482 17.3161ZM82.2211 14.8816L83.547 12.7175L80.2932 10.7239L78.2996 13.9777L80.5097 15.3318L81.1774 14.2421L82.2211 14.8816Z" fill="#E81F26"/>
<path d="M25.623 21.4829L23.9679 23.4069L24.9231 24.2286L25.7448 23.2734L26.7273 24.1186L27.5607 23.1497L28.5569 24.0066L26.0683 26.8995L25.1404 26.1013L24.307 27.0702L23.2972 26.2015L22.4755 27.1567L24.4132 28.8236L22.7112 30.8023L15.9155 24.9565L20.9278 19.1297L21.8557 19.9279L22.6892 18.9591L25.623 21.4829ZM22.9756 22.6008L21.0515 20.9457L18.563 23.8386L21.4559 26.3271L23.1462 24.3621L22.1774 23.5287L22.9756 22.6008Z" fill="#E81F26"/>
<path d="M95.0857 26.003L93.1837 24.3225L92.3495 25.2668L93.2937 26.101L92.4356 27.0723L93.3934 27.9184L92.5233 28.9032L89.6636 26.3765L90.474 25.4593L89.5163 24.6131L90.3982 23.6149L89.454 22.7806L87.7616 24.6961L85.8057 22.968L91.7409 16.2503L97.5008 21.3393L96.6904 22.2566L97.6481 23.1028L95.0857 26.003ZM94.0029 23.3409L95.6834 21.439L92.8236 18.9123L90.297 21.7721L92.2395 23.4883L93.0857 22.5305L94.0029 23.3409Z" fill="#E81F26"/>
<path d="M38.0783 16.7418L37.0041 17.3285L37.6253 18.4659L31.9698 21.5547L31.3831 20.4805L30.2457 21.1017L27.1483 15.4304L28.2225 14.8437L27.6099 13.7221L33.2812 10.6247L33.8679 11.6989L34.9895 11.0863L38.0783 16.7418ZM35.8193 17.9756L32.7564 12.3675L29.4073 14.1966L32.4702 19.8047L35.8193 17.9756Z" fill="#E81F26"/>
<path d="M99.6608 38.5158L99.0884 37.4339L97.9428 38.04L94.9292 32.3441L96.0111 31.7717L95.405 30.6262L101.117 27.6041L101.689 28.686L102.819 28.0883L105.841 33.8001L104.759 34.3725L105.357 35.5022L99.6608 38.5158ZM98.457 36.2407L104.105 33.2523L102.321 29.8793L96.6724 32.8677L98.457 36.2407Z" fill="#E81F26"/>
<path d="M49.9386 10.372L47.4761 10.9864L47.7812 12.2089L49.0037 11.9039L49.3174 13.1613L50.5574 12.8519L50.8755 14.1269L47.1731 15.0507L46.8767 13.8631L45.6367 14.1725L45.3143 12.8801L44.0918 13.1852L44.7106 15.6652L42.1782 16.297L40.008 7.5997L47.4654 5.73892L47.7617 6.92651L49.0017 6.6171L49.9386 10.372ZM47.1318 9.75516L46.5173 7.29266L42.8149 8.21652L43.7387 11.919L46.2536 11.2915L45.9442 10.0515L47.1318 9.75516Z" fill="#E81F26"/>
<path d="M105.872 50.4635L105.29 47.9931L104.064 48.2819L104.353 49.5084L103.091 49.8054L103.384 51.0494L102.105 51.3506L101.23 47.6362L102.422 47.3557L102.129 46.1117L103.425 45.8064L103.136 44.5799L100.649 45.1658L100.05 42.6253L108.776 40.5705L110.537 48.0518L109.346 48.3324L109.639 49.5764L105.872 50.4635ZM106.526 47.6651L108.996 47.0833L108.122 43.3689L104.407 44.2436L105.001 46.7666L106.245 46.4737L106.526 47.6651Z" fill="#E81F26"/>
<path d="M55.8532 8.7315L56.8099 7.14168L55.0597 7.44717L55.0034 6.5296L56.7664 6.532L55.7129 5.10331L56.4726 4.60667L57.2788 6.19888L57.9816 4.45262L58.7915 4.85545L57.8228 6.46944L59.579 6.15186L59.6412 7.05735L57.8542 7.07311L58.9318 8.48364L58.1661 8.99236L57.3538 7.41224L56.6631 9.13433L55.8532 8.7315Z" fill="#E81F26"/>
<path d="M98.2669 74.677L100.942 66.0083L109.593 68.6779L106.918 77.3466L105.714 76.9751L107.62 70.8004L105.16 70.0414L104.019 73.7394L102.746 73.3466L103.887 69.6487L101.428 68.8897L99.5225 75.0645L98.2669 74.677Z" fill="#E81F26"/>
<path d="M95.7415 85.358L97.0084 83.1588L95.9166 82.5299L95.2877 83.6217L94.1647 82.9748L93.5268 84.0821L92.3882 83.4262L94.293 80.1197L95.3536 80.7306L95.9916 79.6233L97.1457 80.2882L97.7747 79.1964L95.5599 77.9205L96.8628 75.6589L104.63 80.1335L100.793 86.7934L99.7328 86.1824L99.0949 87.2898L95.7415 85.358ZM98.1338 83.7656L100.333 85.0325L102.238 81.7259L98.9312 79.8211L97.6374 82.0671L98.7448 82.705L98.1338 83.7656Z" fill="#E81F26"/>
<path d="M87.4456 95.6861L89.1774 93.8308L88.2562 92.971L87.3965 93.8921L86.4491 93.0078L85.577 93.9421L84.6165 93.0455L87.2203 90.2559L88.115 91.091L88.9871 90.1568L89.9608 91.0656L90.8206 90.1445L88.952 88.4005L90.7329 86.4925L97.286 92.6089L92.0415 98.2277L91.1467 97.3925L90.2747 98.3268L87.4456 95.6861ZM90.1362 94.6765L91.9916 96.4082L94.5954 93.6186L91.8057 91.0148L90.0371 92.9097L90.9714 93.7817L90.1362 94.6765Z" fill="#E81F26"/>
<path d="M75.7067 100.521L76.7261 99.8435L76.0088 98.7642L81.3756 95.1974L82.0531 96.2168L83.1325 95.4994L86.7093 100.881L85.6899 101.559L86.3972 102.623L81.0154 106.2L80.3379 105.18L79.2735 105.888L75.7067 100.521ZM77.8505 99.0963L81.3874 104.418L84.5655 102.306L81.0286 96.9841L77.8505 99.0963Z" fill="#E81F26"/>
<path d="M65.0795 107.694L67.4172 106.706L66.9267 105.545L65.7661 106.036L65.2615 104.842L64.0844 105.339L63.5728 104.129L67.0877 102.644L67.5643 103.771L68.7414 103.273L69.26 104.5L70.4206 104.01L69.4255 101.655L71.8296 100.639L75.3194 108.896L68.2399 111.888L67.7633 110.761L66.5862 111.258L65.0795 107.694ZM67.948 107.869L68.9361 110.207L72.451 108.721L70.9653 105.206L68.5778 106.215L69.0754 107.392L67.948 107.869Z" fill="#E81F26"/>
<path d="M58.0467 107.984L58.2473 109.829L59.4557 108.526L60.0558 109.223L58.651 110.288L60.3542 110.787L60.0501 111.643L58.4446 110.863L58.942 112.679L58.0536 112.848L57.8479 110.977L56.642 112.293L56.0444 111.609L57.4575 110.515L55.746 110.045L56.0476 109.176L57.6506 109.943L57.1582 108.154L58.0467 107.984Z" fill="#E81F26"/>
<path d="M106.265 59.9535L108.12 59.9369L106.944 58.6052L107.696 58.0772L108.617 59.5807L109.283 57.9355L110.104 58.323L109.169 59.8432L111.025 59.5283L111.105 60.4293L109.223 60.4483L110.412 61.7787L109.673 62.3056L108.725 60.7909L108.087 62.4473L107.252 62.0609L108.174 60.5419L106.345 60.8544L106.265 59.9535Z" fill="#E81F26"/>
</svg>
