<svg width="16" height="16" viewBox="0 0 16 16" fill="none" xmlns="http://www.w3.org/2000/svg">
<path d="M7.07601 2.33338C7.11847 2.2899 7.16921 2.25537 7.22524 2.23182C7.28127 2.20828 7.34144 2.1962 7.40222 2.19629C7.46299 2.19638 7.52313 2.20865 7.57909 2.23237C7.63504 2.25608 7.68568 2.29077 7.72801 2.33438L12.91 7.65138C13.001 7.74475 13.052 7.86999 13.052 8.00038C13.052 8.13077 13.001 8.25601 12.91 8.34938L7.72801 13.6664C7.68561 13.7099 7.63492 13.7445 7.57893 13.7682C7.52294 13.7918 7.46278 13.804 7.40201 13.804C7.34123 13.804 7.28107 13.7918 7.22508 13.7682C7.16909 13.7445 7.1184 13.7099 7.07601 13.6664C6.98878 13.5771 6.93994 13.4572 6.93994 13.3324C6.93994 13.2076 6.98878 13.0877 7.07601 12.9984L11.949 8.00038L7.07601 3.00038C6.98908 2.91113 6.94043 2.79147 6.94043 2.66688C6.94043 2.54229 6.98908 2.42263 7.07601 2.33338ZM3.07601 2.33338C3.11847 2.2899 3.16921 2.25537 3.22524 2.23182C3.28127 2.20828 3.34144 2.1962 3.40222 2.19629C3.46299 2.19638 3.52313 2.20865 3.57909 2.23237C3.63504 2.25608 3.68568 2.29077 3.72801 2.33438L8.91001 7.65138C9.00102 7.74475 9.05196 7.86999 9.05196 8.00038C9.05196 8.13077 9.00102 8.25601 8.91001 8.34938L3.72801 13.6664C3.68561 13.7099 3.63492 13.7445 3.57893 13.7682C3.52294 13.7918 3.46278 13.804 3.40201 13.804C3.34123 13.804 3.28107 13.7918 3.22508 13.7682C3.16909 13.7445 3.1184 13.7099 3.07601 13.6664C2.98878 13.5771 2.93994 13.4572 2.93994 13.3324C2.93994 13.2076 2.98878 13.0877 3.07601 12.9984L7.94901 8.00038L3.07601 3.00038C2.98908 2.91113 2.94043 2.79147 2.94043 2.66688C2.94043 2.54229 2.98908 2.42263 3.07601 2.33338Z" fill="#EC1F26"/>
</svg>
