<svg width="18" height="18" viewBox="0 0 18 18" fill="none" xmlns="http://www.w3.org/2000/svg">
<path d="M9.01842 4.74609C6.66127 4.74609 4.78292 6.66127 4.78292 8.98158C4.78292 11.3387 6.66127 13.2171 9.01842 13.2171C11.3387 13.2171 13.2539 11.3387 13.2539 8.98158C13.2539 6.66127 11.3387 4.74609 9.01842 4.74609ZM9.01842 11.7439C7.50837 11.7439 6.25614 10.5285 6.25614 8.98158C6.25614 7.47154 7.47154 6.25614 9.01842 6.25614C10.5285 6.25614 11.7439 7.47154 11.7439 8.98158C11.7439 10.5285 10.5285 11.7439 9.01842 11.7439ZM14.3956 4.59877C14.3956 4.04632 13.9537 3.60435 13.4012 3.60435C12.8488 3.60435 12.4068 4.04632 12.4068 4.59877C12.4068 5.15123 12.8488 5.59319 13.4012 5.59319C13.9537 5.59319 14.3956 5.15123 14.3956 4.59877ZM17.1948 5.59319C17.1211 4.2673 16.8265 3.08873 15.8689 2.13114C14.9113 1.17355 13.7327 0.878906 12.4068 0.805246C11.0441 0.731585 6.95591 0.731585 5.59319 0.805246C4.2673 0.878906 3.12556 1.17355 2.13114 2.13114C1.17355 3.08873 0.878906 4.2673 0.805246 5.59319C0.731585 6.95591 0.731585 11.0441 0.805246 12.4068C0.878906 13.7327 1.17355 14.8744 2.13114 15.8689C3.12556 16.8265 4.2673 17.1211 5.59319 17.1948C6.95591 17.2684 11.0441 17.2684 12.4068 17.1948C13.7327 17.1211 14.9113 16.8265 15.8689 15.8689C16.8265 14.8744 17.1211 13.7327 17.1948 12.4068C17.2684 11.0441 17.2684 6.95591 17.1948 5.59319ZM15.4269 13.8432C15.1691 14.5798 14.5798 15.1323 13.88 15.4269C12.7751 15.8689 10.197 15.7584 9.01842 15.7584C7.80301 15.7584 5.22489 15.8689 4.15681 15.4269C3.4202 15.1323 2.86775 14.5798 2.5731 13.8432C2.13114 12.7751 2.24163 10.197 2.24163 8.98158C2.24163 7.80301 2.13114 5.22489 2.5731 4.11998C2.86775 3.4202 3.4202 2.86775 4.15681 2.5731C5.22489 2.13114 7.80301 2.24163 9.01842 2.24163C10.197 2.24163 12.7751 2.13114 13.88 2.5731C14.5798 2.83092 15.1323 3.4202 15.4269 4.11998C15.8689 5.22489 15.7584 7.80301 15.7584 8.98158C15.7584 10.197 15.8689 12.7751 15.4269 13.8432Z" fill="white"/>
</svg>
